<svg width="20" height="20" viewBox="0 0 20 20" xmlns="http://www.w3.org/2000/svg"><path d="M9.20005 15C9.20005 15.3362 9.10035 15.6649 8.91355 15.9445C8.72675 16.224 8.46125 16.4419 8.15061 16.5706C7.83998 16.6993 7.49816 16.7329 7.1684 16.6673C6.83863 16.6017 6.53572 16.4398 6.29797 16.2021C6.06022 15.9643 5.89831 15.6614 5.83271 15.3317C5.76712 15.0019 5.80079 14.6601 5.92945 14.3494C6.05812 14.0388 6.27602 13.7733 6.55558 13.5865C6.83514 13.3997 7.16382 13.3 7.50005 13.3C8.50005 13.3 9.20005 14.1 9.20005 15ZM7.50005 8.3C7.16382 8.3 6.83514 8.39971 6.55558 8.58651C6.27602 8.7733 6.05812 9.03881 5.92945 9.34944C5.80079 9.66008 5.76712 10.0019 5.83271 10.3317C5.89831 10.6614 6.06022 10.9643 6.29797 11.2021C6.53572 11.4398 6.83863 11.6017 7.1684 11.6673C7.49816 11.7329 7.83998 11.6993 8.15061 11.5706C8.46125 11.4419 8.72675 11.224 8.91355 10.9445C9.10035 10.6649 9.20005 10.3362 9.20005 10C9.20005 9 8.40005 8.3 7.50005 8.3ZM7.50005 3.3C7.16382 3.3 6.83514 3.39971 6.55558 3.58651C6.27602 3.7733 6.05812 4.03881 5.92945 4.34944C5.80079 4.66008 5.76712 5.00189 5.83271 5.33166C5.89831 5.66143 6.06022 5.96434 6.29797 6.20209C6.53572 6.43983 6.83863 6.60174 7.1684 6.66734C7.49816 6.73293 7.83998 6.69927 8.15061 6.5706C8.46125 6.44193 8.72675 6.22404 8.91355 5.94447C9.10035 5.66491 9.20005 5.33623 9.20005 5C9.20005 4 8.40005 3.3 7.50005 3.3ZM12.5 6.7C12.8363 6.7 13.165 6.6003 13.4445 6.4135C13.7241 6.2267 13.942 5.9612 14.0706 5.65057C14.1993 5.33993 14.233 4.99812 14.1674 4.66835C14.1018 4.33858 13.9399 4.03567 13.7021 3.79792C13.4644 3.56017 13.1615 3.39826 12.8317 3.33267C12.5019 3.26707 12.1601 3.30074 11.8495 3.42941C11.5389 3.55808 11.2734 3.77597 11.0866 4.05553C10.8998 4.3351 10.8 4.66378 10.8 5C10.8 6 11.6 6.7 12.5 6.7ZM12.5 8.3C12.1638 8.3 11.8351 8.39971 11.5556 8.58651C11.276 8.7733 11.0581 9.03881 10.9295 9.34944C10.8008 9.66008 10.7671 10.0019 10.8327 10.3317C10.8983 10.6614 11.0602 10.9643 11.298 11.2021C11.5357 11.4398 11.8386 11.6017 12.1684 11.6673C12.4982 11.7329 12.84 11.6993 13.1506 11.5706C13.4612 11.4419 13.7267 11.224 13.9135 10.9445C14.1003 10.6649 14.2 10.3362 14.2 10C14.2 9 13.4 8.3 12.5 8.3ZM12.5 13.3C12.1638 13.3 11.8351 13.3997 11.5556 13.5865C11.276 13.7733 11.0581 14.0388 10.9295 14.3494C10.8008 14.6601 10.7671 15.0019 10.8327 15.3317C10.8983 15.6614 11.0602 15.9643 11.298 16.2021C11.5357 16.4398 11.8386 16.6017 12.1684 16.6673C12.4982 16.7329 12.84 16.6993 13.1506 16.5706C13.4612 16.4419 13.7267 16.224 13.9135 15.9445C14.1003 15.6649 14.2 15.3362 14.2 15C14.2 14 13.4 13.3 12.5 13.3Z"/></svg>
